<svg width="41" height="40" viewBox="0 0 41 40" fill="none" xmlns="http://www.w3.org/2000/svg">
<path d="M25.4999 3.33337H15.4999C14.5794 3.33337 13.8333 4.07957 13.8333 5.00004V8.33337C13.8333 9.25385 14.5794 10 15.4999 10H25.4999C26.4204 10 27.1666 9.25385 27.1666 8.33337V5.00004C27.1666 4.07957 26.4204 3.33337 25.4999 3.33337Z" stroke="#F4B645" stroke-width="2.5" stroke-linecap="round" stroke-linejoin="round"/>
<path d="M27.1667 6.66663H30.5001C31.3841 6.66663 32.232 7.01782 32.8571 7.64294C33.4822 8.26806 33.8334 9.1159 33.8334 9.99996V33.3333C33.8334 34.2173 33.4822 35.0652 32.8571 35.6903C32.232 36.3154 31.3841 36.6666 30.5001 36.6666H10.5001C9.61603 36.6666 8.76818 36.3154 8.14306 35.6903C7.51794 35.0652 7.16675 34.2173 7.16675 33.3333V9.99996C7.16675 9.1159 7.51794 8.26806 8.14306 7.64294C8.76818 7.01782 9.61603 6.66663 10.5001 6.66663H13.8334" stroke="#F4B645" stroke-width="2.5" stroke-linecap="round" stroke-linejoin="round"/>
<path d="M20.5 18.3334H27.1667" stroke="#F4B645" stroke-width="2.5" stroke-linecap="round" stroke-linejoin="round"/>
<path d="M20.5 26.6666H27.1667" stroke="#F4B645" stroke-width="2.5" stroke-linecap="round" stroke-linejoin="round"/>
<path d="M13.8333 18.3334H13.8499" stroke="#F4B645" stroke-width="2.5" stroke-linecap="round" stroke-linejoin="round"/>
<path d="M13.8333 26.6666H13.8499" stroke="#F4B645" stroke-width="2.5" stroke-linecap="round" stroke-linejoin="round"/>
</svg>
